<svg xmlns="http://www.w3.org/2000/svg" width="23.151" height="23.136" viewBox="0 0 23.151 23.136">
  <g id="home-7" transform="translate(0 -0.16)">
    <path id="Path_110" data-name="Path 110" d="M194.894,319.841A2.894,2.894,0,0,0,192,322.735v5.788h5.788v-5.788A2.894,2.894,0,0,0,194.894,319.841Z" transform="translate(-183.319 -305.226)" fill="#fff"/>
    <g id="Group_37" data-name="Group 37" transform="translate(0 0.16)">
      <path id="Path_111" data-name="Path 111" d="M16.4,17.508V23.3h3.858A2.894,2.894,0,0,0,23.151,20.4V11.6a1.929,1.929,0,0,0-.543-1.343L14.41,1.4a3.858,3.858,0,0,0-5.452-.215q-.112.1-.215.215L.56,10.258A1.929,1.929,0,0,0,0,11.618V20.4A2.894,2.894,0,0,0,2.894,23.3H6.752V17.508a4.823,4.823,0,1,1,9.646,0Z" transform="translate(0 -0.16)" fill="#fff"/>
      <path id="Path_112" data-name="Path 112" d="M194.894,319.841A2.894,2.894,0,0,0,192,322.735v5.788h5.788v-5.788A2.894,2.894,0,0,0,194.894,319.841Z" transform="translate(-183.319 -305.386)" fill="#fff"/>
    </g>
  </g>
</svg>
