<svg xmlns="http://www.w3.org/2000/svg" width="22.098" height="22.094" viewBox="0 0 22.098 22.094">
  <path id="tennis" d="M12.152.059a11.071,11.071,0,0,1,9.981,9.981A8.628,8.628,0,0,1,12.152.059Zm-4.5,14.476A8.575,8.575,0,0,0,.06,12.161a11.07,11.07,0,0,0,9.968,9.968,8.579,8.579,0,0,0-2.375-7.593Zm13.014-2.517A10.476,10.476,0,0,1,10.293.047,11.031,11.031,0,0,0,.047,10.3a10.4,10.4,0,0,1,11.839,11.84A11.032,11.032,0,0,0,22.145,11.9a10.6,10.6,0,0,1-1.479.116Z" transform="translate(-0.047 -0.047)" fill="#ccc"/>
</svg>
